<?xml version="1.0" standalone="no"?>
<!DOCTYPE svg PUBLIC "-//W3C//DTD SVG 20010904//EN"
 "http://www.w3.org/TR/2001/REC-SVG-20010904/DTD/svg10.dtd">
<svg version="1.0" xmlns="http://www.w3.org/2000/svg"
 width="522.000000pt" height="522.000000pt" viewBox="0 0 522.000000 522.000000"
 preserveAspectRatio="xMidYMid meet">
<metadata>
Created by potrace 1.11, written by Peter Selinger 2001-2013
</metadata>
<g transform="translate(0.000000,522.000000) scale(0.100000,-0.100000)"
fill="#000000" stroke="none">
<path d="M3279 5216 c-2 -2 -51 -7 -109 -10 -58 -4 -118 -8 -135 -10 -16 -2
-59 -7 -95 -10 -36 -4 -76 -8 -90 -11 -14 -2 -61 -9 -105 -15 -536 -77 -1062
-274 -1515 -568 -500 -323 -830 -748 -930 -1197 -42 -186 -32 -482 18 -568 48
-80 181 -117 345 -95 159 21 322 82 639 237 184 91 409 178 505 196 200 37
227 40 403 51 840 53 1469 -238 1753 -811 44 -88 91 -220 101 -280 3 -16 10
-52 15 -80 11 -52 8 -305 -4 -365 -54 -285 -198 -530 -408 -697 -23 -19 -89
-54 -93 -51 -1 2 18 35 43 73 108 168 177 341 209 530 14 82 10 259 -8 345
-10 47 -21 100 -24 118 -4 18 -11 35 -15 38 -5 3 -9 12 -9 20 0 26 -70 166
-124 248 -150 229 -323 365 -577 454 -81 29 -240 67 -319 77 -119 15 -217 20
-385 20 -196 0 -264 -5 -350 -25 -27 -6 -58 -13 -67 -15 -190 -39 -459 -162
-624 -286 -386 -289 -544 -673 -469 -1144 18 -117 99 -314 166 -406 108 -149
273 -282 472 -381 42 -21 77 -40 77 -42 0 -1 -39 8 -87 21 -165 45 -528 131
-628 148 -297 52 -568 -18 -699 -178 -73 -90 -101 -169 -100 -282 2 -121 34
-181 129 -237 l40 -23 1535 -1 c844 -1 1569 3 1610 7 119 13 149 18 229 40 42
11 83 22 91 24 119 29 371 149 510 243 241 162 458 394 608 649 41 69 59 109
60 127 0 5 4 12 9 15 21 14 117 273 138 371 2 8 10 47 19 85 26 125 31 186 31
405 -1 236 -5 275 -41 430 -137 587 -542 1055 -1129 1303 -136 58 -384 125
-515 141 -25 3 -72 9 -105 13 -116 15 -734 7 -832 -11 -15 -3 -94 -12 -183
-21 -14 -1 -43 -5 -65 -9 -22 -4 -56 -9 -75 -11 -34 -4 -95 -14 -135 -21 -11
-2 -41 -7 -67 -10 l-47 -6 9 33 c39 135 145 278 265 355 99 63 119 65 597 69
238 2 442 6 454 8 12 3 45 8 75 12 30 3 61 8 69 10 8 2 31 7 50 10 192 33 433
131 599 246 161 110 315 290 400 464 48 97 77 173 69 180 -6 6 -194 29 -323
40 -38 3 -90 8 -115 11 -53 6 -736 15 -741 10z"/>
<path d="M4653 5122 c-80 -254 -266 -510 -481 -664 -37 -27 -76 -55 -86 -63
-10 -8 -68 -38 -127 -67 -60 -29 -109 -55 -109 -58 0 -6 109 -4 230 4 367 25
667 143 862 337 37 37 79 87 94 111 15 23 30 45 33 48 15 12 91 192 91 215 0
6 -294 99 -408 129 -85 22 -94 23 -99 8z"/>
</g>
</svg>
